<?xml version="1.0" ?>
<svg data-name="Layer 1" id="Layer_1" viewBox="0 0 32 32" xmlns="http://www.w3.org/2000/svg">
    <title/>
    <path fill="#00BCD4" d="M4.21,18.38a6.66,6.66,0,0,0,9.41,9.41L27.71,13.71a6.66,6.66,0,0,0-9.41-9.41Zm8,8a4.66,4.66,0,0,1-6.59-6.59L12,13.41,18.59,20ZM23,4.35a4.65,4.65,0,0,1,3.29,7.95L20,18.59,13.41,12l6.29-6.29A4.64,4.64,0,0,1,23,4.35Z"/>
    <path fill="#00BCD4" d="M12.71,23.29a1,1,0,0,0-1.41,0l-1,1a1.83,1.83,0,0,1-2.59,0,1,1,0,0,0-1.41,1.41,3.83,3.83,0,0,0,5.41,0l1-1A1,1,0,0,0,12.71,23.29Z"/>
</svg>
