<svg height="512pt" viewBox="0 -91 512 512" width="512pt" xmlns="http://www.w3.org/2000/svg">
    <path fill="#fff"
          d="m256 0c-140.4375 0-256 113.496094-256 255v60c0 8.285156 6.714844 15 15 15h482c8.285156 0 15-6.714844 15-15v-60c0-140.664062-114.960938-255-256-255zm181 270h45v30h-452v-30h45c8.285156 0 15-6.714844 15-15s-6.714844-15-15-15h-44.484375c3.367187-50.707031 23.675781-96.875 55.34375-132.929688l31.253906 31.257813c5.859375 5.859375 15.355469 5.859375 21.214844 0 5.855469-5.859375 5.855469-15.355469 0-21.214844l-31.226563-31.222656c36.273438-31.699219 82.792969-52.03125 133.898438-55.382813v44.492188c0 8.285156 6.714844 15 15 15s15-6.714844 15-15v-44.492188c51.105469 3.351563 97.625 23.683594 133.898438 55.378907l-31.226563 31.226562c-5.855469 5.859375-5.855469 15.355469 0 21.214844 5.859375 5.855469 15.355469 5.859375 21.214844 0l31.253906-31.257813c31.667969 36.054688 51.976563 82.222657 55.34375 132.929688h-44.484375c-8.285156 0-15 6.714844-15 15 0 8.28125 6.714844 15 15 15zm0 0"/>
    <path fill="#fff" d="m301 255c0-6.90625-1.566406-13.449219-4.359375-19.300781l60.890625-60.015625c5.898438-5.816406 5.96875-15.3125.152344-21.214844-5.816406-5.898438-15.3125-5.96875-21.210938-.152344l-60.996094 60.121094c-5.898437-2.84375-12.503906-4.4375-19.476562-4.4375-24.8125 0-45 20.1875-45 45s20.1875 45 45 45 45-20.1875 45-45zm-45 15c-8.269531 0-15-6.730469-15-15s6.730469-15 15-15 15 6.730469 15 15-6.730469 15-15 15zm0 0"/>
</svg>
